<svg xmlns="http://www.w3.org/2000/svg" width="860" height="310" viewBox="0 0 860 310">
<rect width="100%" height="100%" fill="white"/>
<style>
text{font-family:'Times New Roman',DejaVu Serif,serif;fill:#222}
.axis{stroke:#333;stroke-width:1}
.grid{stroke:#D0D0D0;stroke-width:0.7;opacity:0.45}
.tick{font-size:11px}
.label{font-size:13px;font-weight:600}
.legend{font-size:12px}
</style>
<text x="18" y="22" font-size="18" font-weight="700">Window duration trade-off</text>
<line class="grid" x1="55" y1="272.0" x2="395" y2="272.0"/>
<text class="tick" x="47" y="276.0" text-anchor="end">0.00</text>
<line class="grid" x1="55" y1="217.0" x2="395" y2="217.0"/>
<text class="tick" x="47" y="221.0" text-anchor="end">0.25</text>
<line class="grid" x1="55" y1="162.0" x2="395" y2="162.0"/>
<text class="tick" x="47" y="166.0" text-anchor="end">0.50</text>
<line class="grid" x1="55" y1="107.0" x2="395" y2="107.0"/>
<text class="tick" x="47" y="111.0" text-anchor="end">0.75</text>
<line class="grid" x1="55" y1="52.0" x2="395" y2="52.0"/>
<text class="tick" x="47" y="56.0" text-anchor="end">1.00</text>
<line class="axis" x1="55" y1="272" x2="395" y2="272"/>
<line class="axis" x1="55" y1="52" x2="55" y2="272"/>
<text class="label" x="225.0" y="310" text-anchor="middle">MaxWindowDuration (ms)</text>
<text class="label" transform="translate(13,162.0) rotate(-90)" text-anchor="middle">Matched value ratio</text>
<circle cx="55.0" cy="185.5" r="3.4" fill="#C44E52" stroke="white" stroke-width="0.8"/>
<circle cx="395.0" cy="178.2" r="3.4" fill="#C44E52" stroke="white" stroke-width="0.8"/>
<polyline points="55.0,185.5 395.0,178.2" fill="none" stroke="#C44E52" stroke-width="2"/>
<line x1="63" y1="67" x2="81" y2="67" stroke="#C44E52" stroke-width="2"/>
<text class="legend" x="86" y="71">Matched value</text>
<line class="grid" x1="55.0" y1="52" x2="55.0" y2="272"/>
<text class="tick" x="55.0" y="290" text-anchor="middle">250</text>
<line class="grid" x1="140.0" y1="52" x2="140.0" y2="272"/>
<text class="tick" x="140.0" y="290" text-anchor="middle">438</text>
<line class="grid" x1="225.0" y1="52" x2="225.0" y2="272"/>
<text class="tick" x="225.0" y="290" text-anchor="middle">625</text>
<line class="grid" x1="310.0" y1="52" x2="310.0" y2="272"/>
<text class="tick" x="310.0" y="290" text-anchor="middle">812</text>
<line class="grid" x1="395.0" y1="52" x2="395.0" y2="272"/>
<text class="tick" x="395.0" y="290" text-anchor="middle">1000</text>
<line class="grid" x1="480" y1="272.0" x2="800" y2="272.0"/>
<text class="tick" x="472" y="276.0" text-anchor="end">0.00</text>
<line class="grid" x1="480" y1="217.0" x2="800" y2="217.0"/>
<text class="tick" x="472" y="221.0" text-anchor="end">2.64</text>
<line class="grid" x1="480" y1="162.0" x2="800" y2="162.0"/>
<text class="tick" x="472" y="166.0" text-anchor="end">5.28</text>
<line class="grid" x1="480" y1="107.0" x2="800" y2="107.0"/>
<text class="tick" x="472" y="111.0" text-anchor="end">7.93</text>
<line class="grid" x1="480" y1="52.0" x2="800" y2="52.0"/>
<text class="tick" x="472" y="56.0" text-anchor="end">10.6</text>
<line class="axis" x1="480" y1="272" x2="800" y2="272"/>
<line class="axis" x1="480" y1="52" x2="480" y2="272"/>
<text class="label" x="640.0" y="310" text-anchor="middle">MaxWindowDuration (ms)</text>
<text class="label" transform="translate(438,162.0) rotate(-90)" text-anchor="middle">Avg. latency (s)</text>
<circle cx="480.0" cy="121.5" r="3.4" fill="#C44E52" stroke="white" stroke-width="0.8"/>
<circle cx="800.0" cy="85.6" r="3.4" fill="#C44E52" stroke="white" stroke-width="0.8"/>
<polyline points="480.0,121.5 800.0,85.6" fill="none" stroke="#C44E52" stroke-width="2"/>
<line x1="488" y1="67" x2="506" y2="67" stroke="#C44E52" stroke-width="2"/>
<text class="legend" x="511" y="71">Latency</text>
<line class="grid" x1="480.0" y1="52" x2="480.0" y2="272"/>
<text class="tick" x="480.0" y="290" text-anchor="middle">250</text>
<line class="grid" x1="560.0" y1="52" x2="560.0" y2="272"/>
<text class="tick" x="560.0" y="290" text-anchor="middle">438</text>
<line class="grid" x1="640.0" y1="52" x2="640.0" y2="272"/>
<text class="tick" x="640.0" y="290" text-anchor="middle">625</text>
<line class="grid" x1="720.0" y1="52" x2="720.0" y2="272"/>
<text class="tick" x="720.0" y="290" text-anchor="middle">812</text>
<line class="grid" x1="800.0" y1="52" x2="800.0" y2="272"/>
<text class="tick" x="800.0" y="290" text-anchor="middle">1000</text>
</svg>